<?xml version="1.0" standalone="no"?>
<!DOCTYPE svg PUBLIC "-//W3C//DTD SVG 20010904//EN"
 "http://www.w3.org/TR/2001/REC-SVG-20010904/DTD/svg10.dtd">
<svg version="1.0" xmlns="http://www.w3.org/2000/svg"
 width="375.000000pt" height="134.000000pt" viewBox="0 0 375.000000 134.000000"
 preserveAspectRatio="xMidYMid meet">

<g transform="translate(0.000000,134.000000) scale(0.100000,-0.100000)"
fill="#000000" stroke="none">
<path d="M600 1163 c-27 -14 -39 -29 -51 -65 -14 -44 -26 -56 -149 -148 -122
-92 -137 -100 -178 -100 -37 0 -50 -6 -78 -34 -53 -53 -43 -126 22 -167 29
-18 38 -35 83 -170 48 -143 49 -151 34 -177 -23 -40 -11 -94 28 -126 41 -35
97 -35 137 -1 29 25 33 25 202 25 169 0 173 0 202 -25 40 -34 96 -34 137 1 39
32 51 86 28 126 -15 26 -14 34 34 177 45 135 54 152 83 170 65 41 75 114 22
167 -28 28 -41 34 -78 34 -41 0 -56 8 -179 100 -122 92 -135 105 -147 145 -20
71 -87 101 -152 68z"/>
<path d="M2190 848 l0 -112 -27 26 c-83 79 -223 59 -280 -40 -70 -118 -5 -267
124 -288 61 -9 108 3 148 38 l35 30 0 -36 c0 -32 3 -36 25 -36 l25 0 0 265 0
265 -25 0 -25 0 0 -112z m-68 -104 c84 -43 81 -206 -5 -250 -67 -35 -155 -13
-191 46 -22 38 -21 128 1 160 46 67 119 83 195 44z"/>
<path d="M3140 945 c-18 -22 -1 -50 31 -50 20 0 24 5 24 30 0 23 -5 31 -21 33
-11 2 -27 -4 -34 -13z"/>
<path d="M1516 898 c-19 -45 -196 -429 -207 -450 -8 -15 -5 -18 19 -18 26 0
32 7 60 70 l31 70 139 0 139 0 31 -70 c27 -61 34 -70 57 -70 18 0 25 4 22 13
-2 6 -53 119 -113 250 -103 226 -110 237 -136 237 -22 0 -31 -7 -42 -32z m107
-165 l56 -123 -120 0 c-67 0 -119 4 -117 9 30 78 114 249 119 244 4 -5 32 -63
62 -130z"/>
<path d="M2380 620 l0 -190 25 0 25 0 0 104 c0 131 6 161 41 195 54 54 150 44
181 -19 14 -28 18 -61 18 -157 l0 -123 25 0 25 0 0 124 c0 112 2 126 23 157
29 44 84 63 137 49 62 -17 73 -44 78 -197 l5 -133 24 0 25 0 -4 138 c-2 116
-6 142 -23 172 -39 67 -129 88 -212 51 -23 -11 -47 -28 -54 -39 -12 -19 -13
-19 -36 9 -48 57 -153 64 -218 15 l-35 -27 0 30 c0 26 -4 31 -25 31 l-25 0 0
-190z"/>
<path d="M3140 620 l0 -190 25 0 25 0 0 190 0 190 -25 0 -25 0 0 -190z"/>
<path d="M3330 620 l0 -190 25 0 25 0 0 104 c0 57 3 117 6 135 21 103 181 132
226 41 14 -28 18 -61 18 -157 l0 -123 25 0 25 0 0 133 c0 145 -11 183 -61 220
-58 42 -187 27 -224 -26 -14 -21 -15 -20 -15 16 0 33 -3 37 -25 37 l-25 0 0
-190z"/>
</g>
</svg>
